<svg xmlns="http://www.w3.org/2000/svg" viewBox="0 0 24 24">
  <defs>
    <linearGradient id="goldGradient" x1="0%" y1="0%" x2="0%" y2="100%">
      <stop offset="0%" style="stop-color:#FFD700;stop-opacity:1" />
      <stop offset="50%" style="stop-color:#FFC700;stop-opacity:1" />
      <stop offset="100%" style="stop-color:#FFB300;stop-opacity:1" />
    </linearGradient>
    <filter id="shadow" x="-50%" y="-50%" width="200%" height="200%">
      <feDropShadow dx="0" dy="1" stdDeviation="1" flood-opacity="0.25"/>
    </filter>
  </defs>
  <path d="M12 2.049l2.756 5.583a1 1 0 0 0 .753.547l6.161.895a1 1 0 0 1 .555 1.706l-4.459 4.347a1 1 0 0 0-.287.885l1.052 6.136a1 1 0 0 1-1.451 1.054L12 19.547a1 1 0 0 0-.93 0l-5.51 2.896a1 1 0 0 1-1.451-1.054l1.052-6.136a1 1 0 0 0-.287-.885l-4.459-4.347a1 1 0 0 1 .555-1.706l6.161-.895a1 1 0 0 0 .753-.547L11.07 2.049a1 1 0 0 1 1.86 0z" 
        fill="url(#goldGradient)"
        filter="url(#shadow)"/>
</svg>