<svg width="32" height="32" viewBox="0 0 32 32" xmlns="http://www.w3.org/2000/svg">
  <defs>
    <linearGradient id="starGradient" x1="0%" y1="0%" x2="100%" y2="100%">
      <stop offset="0%" style="stop-color:#FFD700;stop-opacity:1" />
      <stop offset="50%" style="stop-color:#FFC107;stop-opacity:1" />
      <stop offset="100%" style="stop-color:#FF8F00;stop-opacity:1" />
    </linearGradient>
    <filter id="starGlow" x="-50%" y="-50%" width="200%" height="200%">
      <feGaussianBlur stdDeviation="1" result="coloredBlur"/>
      <feMerge> 
        <feMergeNode in="coloredBlur"/>
        <feMergeNode in="SourceGraphic"/>
      </feMerge>
    </filter>
  </defs>
  
  <!-- Shadow -->
  <path fill="#B8860B" opacity="0.3" d="M16 3.5L18.5 11L26.5 11.8L21 17L22.5 24.5L16 21L9.5 24.5L11 17L5.5 11.8L13.5 11L16 3.5Z" transform="translate(1,1)"/>
  
  <!-- Main star -->
  <path fill="url(#starGradient)" filter="url(#starGlow)" d="M16 2L18.5 10L26.5 10.8L20 16L21.5 24.5L16 20L10.5 24.5L12 16L5.5 10.8L13.5 10L16 2Z"/>
  
  <!-- Inner highlight -->
  <path fill="#FFECB3" opacity="0.8" d="M16 2L17.8 8.5L23.5 9L19.5 12.5L20.8 18L16 15.5L11.2 18L12.5 12.5L8.5 9L14.2 8.5L16 2Z"/>
  
  <!-- Center shine -->
  <circle cx="16" cy="13" r="2" fill="#FFF" opacity="0.6"/>
</svg>