<svg xmlns="http://www.w3.org/2000/svg" viewBox="0 0 24 24">
  <defs>
    <linearGradient id="goldGradient" x1="0%" y1="0%" x2="0%" y2="100%">
      <stop offset="0%" style="stop-color:#FFEC8B;stop-opacity:1" />
      <stop offset="25%" style="stop-color:#FFD700;stop-opacity:1" />
      <stop offset="75%" style="stop-color:#FFC125;stop-opacity:1" />
      <stop offset="100%" style="stop-color:#FFB90F;stop-opacity:1" />
    </linearGradient>
    <radialGradient id="innerHighlight" cx="50%" cy="40%">
      <stop offset="0%" style="stop-color:#FFFFFF;stop-opacity:0.3" />
      <stop offset="100%" style="stop-color:#FFFFFF;stop-opacity:0" />
    </radialGradient>
    <filter id="shadow" x="-50%" y="-50%" width="200%" height="200%">
      <feDropShadow dx="0" dy="0.8" stdDeviation="0.8" flood-opacity="0.3"/>
    </filter>
  </defs>
  <!-- النجمة الأساسية -->
  <path d="M12 2.5l2.61 5.29a1 1 0 0 0 .75.55l5.84.85a1 1 0 0 1 .55 1.71l-4.23 4.12a1 1 0 0 0-.29.88l1 5.82a1 1 0 0 1-1.45 1.05L12 20.15a1 1 0 0 0-.93 0l-5.22 2.75a1 1 0 0 1-1.45-1.05l1-5.82a1 1 0 0 0-.29-.88l-4.23-4.12a1 1 0 0 1 .55-1.71l5.84-.85a1 1 0 0 0 .75-.55L11.13 2.5a1 1 0 0 1 1.8 0z" 
        fill="url(#goldGradient)"
        filter="url(#shadow)"/>
  <!-- طبقة الإضاءة الداخلية -->
  <path d="M12 2.5l2.61 5.29a1 1 0 0 0 .75.55l5.84.85a1 1 0 0 1 .55 1.71l-4.23 4.12a1 1 0 0 0-.29.88l1 5.82a1 1 0 0 1-1.45 1.05L12 20.15a1 1 0 0 0-.93 0l-5.22 2.75a1 1 0 0 1-1.45-1.05l1-5.82a1 1 0 0 0-.29-.88l-4.23-4.12a1 1 0 0 1 .55-1.71l5.84-.85a1 1 0 0 0 .75-.55L11.13 2.5a1 1 0 0 1 1.8 0z" 
        fill="url(#innerHighlight)"/>
</svg>