<svg xmlns="http://www.w3.org/2000/svg" viewBox="0 0 24 24">
  <defs>
    <!-- تدرج لوني أنيق -->
    <linearGradient id="elegantGradient" x1="0%" y1="0%" x2="100%" y2="100%">
      <stop offset="0%" style="stop-color:#FFD700;stop-opacity:1" />
      <stop offset="35%" style="stop-color:#FFC125;stop-opacity:1" />
      <stop offset="65%" style="stop-color:#FFB90F;stop-opacity:1" />
      <stop offset="100%" style="stop-color:#FFA500;stop-opacity:1" />
    </linearGradient>
    
    <!-- تدرج للحواف -->
    <linearGradient id="strokeGradient" x1="0%" y1="0%" x2="100%" y2="100%">
      <stop offset="0%" style="stop-color:#FF8C00;stop-opacity:1" />
      <stop offset="100%" style="stop-color:#FF6347;stop-opacity:1" />
    </linearGradient>
    
    <!-- ظل ناعم -->
    <filter id="softShadow" x="-50%" y="-50%" width="200%" height="200%">
      <feGaussianBlur in="SourceAlpha" stdDeviation="0.8"/>
      <feOffset dx="0" dy="0.5" result="offsetblur"/>
      <feFlood flood-color="#000000" flood-opacity="0.2"/>
      <feComposite in2="offsetblur" operator="in"/>
      <feMerge>
        <feMergeNode/>
        <feMergeNode in="SourceGraphic"/>
      </feMerge>
    </filter>
    
    <!-- توهج داخلي -->
    <filter id="innerGlow">
      <feGaussianBlur stdDeviation="0.3" result="coloredBlur"/>
      <feOffset dx="0" dy="-0.5" in="coloredBlur" result="offsetBlur"/>
      <feFlood flood-color="#FFFFE0" flood-opacity="0.3" result="glowColor"/>
      <feComposite in="glowColor" in2="offsetBlur" operator="in" result="softGlow"/>
      <feMerge>
        <feMergeNode in="softGlow"/>
        <feMergeNode in="SourceGraphic"/>
      </feMerge>
    </filter>
  </defs>
  
  <!-- النجمة الرئيسية -->
  <g filter="url(#softShadow)">
    <path d="M12 1.5l2.79 5.65a0.5 0.5 0 0 0 0.38 0.27l6.24 0.91a0.5 0.5 0 0 1 0.28 0.85l-4.52 4.4a0.5 0.5 0 0 0-0.14 0.44l1.07 6.22a0.5 0.5 0 0 1-0.73 0.53L12 17.96a0.5 0.5 0 0 0-0.46 0l-5.58 2.93a0.5 0.5 0 0 1-0.73-0.53l1.07-6.22a0.5 0.5 0 0 0-0.14-0.44l-4.52-4.4a0.5 0.5 0 0 1 0.28-0.85l6.24-0.91a0.5 0.5 0 0 0 0.38-0.27L11.54 1.5a0.5 0.5 0 0 1 0.92 0z" 
          fill="url(#elegantGradient)" 
          stroke="url(#strokeGradient)" 
          stroke-width="0.4"
          stroke-linejoin="round"
          filter="url(#innerGlow)"
          transform="scale(0.95) translate(0.6, 0.6)"/>
  </g>
  
  <!-- نقاط لامعة صغيرة -->
  <circle cx="10" cy="6" r="0.3" fill="#FFFFFF" opacity="0.7"/>
  <circle cx="14" cy="8" r="0.2" fill="#FFFFFF" opacity="0.6"/>
  <circle cx="12" cy="10" r="0.25" fill="#FFFFFF" opacity="0.5"/>
</svg>