<svg xmlns="http://www.w3.org/2000/svg" width="600" height="600" viewBox="0 0 600 600" fill="none">
    <defs>
        <linearGradient id="queenGrad" x1="0" y1="0" x2="1" y2="1">
            <stop offset="0%" stop-color="#ff69b4"/>
            <stop offset="100%" stop-color="#c71585"/>
        </linearGradient>
        
        <filter id="shadow">
            <feDropShadow dx="2" dy="2" stdDeviation="3" flood-opacity="0.3"/>
        </filter>
    </defs>
    
    <!-- إطار دائري خارجي مزخرف -->
    <circle cx="300" cy="300" r="180" fill="none" stroke="url(#queenGrad)" stroke-width="30" filter="url(#shadow)"/>
    <circle cx="300" cy="300" r="195" fill="none" stroke="#c71585" stroke-width="2" opacity="0.5"/>
    <circle cx="300" cy="300" r="165" fill="none" stroke="#c71585" stroke-width="2" opacity="0.5"/>
    
    <!-- زخارف ملكية -->
    <g opacity="0.6">
        <path d="M300,105 L305,115 L295,115 Z" fill="#ff69b4"/>
        <path d="M235,125 L240,135 L230,135 Z" fill="#ff69b4"/>
        <path d="M365,125 L370,135 L360,135 Z" fill="#ff69b4"/>
        <path d="M185,185 L190,195 L180,195 Z" fill="#ff69b4"/>
        <path d="M415,185 L420,195 L410,195 Z" fill="#ff69b4"/>
        <path d="M185,415 L190,425 L180,425 Z" fill="#ff69b4"/>
        <path d="M415,415 L420,425 L410,425 Z" fill="#ff69b4"/>
    </g>
    
    <!-- الشريط السفلي -->
    <g filter="url(#shadow)">
        <path d="M180,480 L420,480 L435,515 L430,550 L170,550 L165,515 Z" fill="url(#queenGrad)" stroke="#c71585" stroke-width="2"/>
        <text x="300" y="522" text-anchor="middle" fill="#8b1468" font-size="36" font-family="Arial Black" font-weight="bold" letter-spacing="2">QUEEN</text>
    </g>
</svg>