<?xml version="1.0" encoding="UTF-8"?>
<svg width="100" height="60" viewBox="0 0 100 60" fill="none" xmlns="http://www.w3.org/2000/svg">
  <defs>
    <linearGradient id="violet" x1="0" y1="0" x2="0" y2="60" gradientUnits="userSpaceOnUse">
      <stop offset="0" stop-color="#F5D0FE"/>
      <stop offset="0.55" stop-color="#C084FC"/>
      <stop offset="1" stop-color="#8B5CF6"/>
    </linearGradient>
    <mask id="cut-star" maskUnits="userSpaceOnUse" x="0" y="0" width="100" height="60">
      <!-- Show all by default -->
      <rect x="0" y="0" width="100" height="60" fill="#fff"/>
      <!-- Cut-out star in the center -->
      <path d="M50 34 L52.94 39.98 L59.5 40.64 L54.5 44.86 L56 51.2 L50 48 L44 51.2 L45.5 44.86 L40.5 40.64 L47.06 39.98 Z" fill="#000"/>
    </mask>
  </defs>

  <!-- 5-point modern crown -->
  <path d="M8 48 L22 26 L34 38 L50 16 L66 38 L78 26 L92 48 L92 60 L8 60 Z" fill="url(#violet)" mask="url(#cut-star)"/>
  <!-- Base plate shading -->
  <rect x="8" y="52" width="84" height="8" rx="2" fill="#312E81" fill-opacity="0.22"/>
  <!-- Accent dots -->
  <circle cx="34" cy="44" r="2" fill="#FFFFFF" fill-opacity="0.85"/>
  <circle cx="66" cy="44" r="2" fill="#FFFFFF" fill-opacity="0.85"/>
</svg>
