<?xml version="1.0" encoding="UTF-8"?>
<svg width="100" height="60" viewBox="0 0 100 60" fill="none" xmlns="http://www.w3.org/2000/svg">
  <defs>
    <linearGradient id="gold" x1="0" y1="0" x2="0" y2="60" gradientUnits="userSpaceOnUse">
      <stop offset="0" stop-color="#FFF3B0"/>
      <stop offset="0.5" stop-color="#FFD166"/>
      <stop offset="1" stop-color="#F59E0B"/>
    </linearGradient>
    <linearGradient id="shine" x1="0" y1="0" x2="0" y2="46" gradientUnits="userSpaceOnUse">
      <stop offset="0" stop-color="#FFFFFF" stop-opacity="0.55"/>
      <stop offset="1" stop-color="#FFFFFF" stop-opacity="0.0"/>
    </linearGradient>
  </defs>

  <!-- Crown silhouette (touching the bottom at y=60) -->
  <path d="M8 46 L25 20 L40 36 L50 6 L60 36 L75 20 L92 46 L92 60 L8 60 Z" fill="url(#gold)"/>
  <!-- Subtle top sheen inside the silhouette -->
  <path d="M9 46 L25 22 L40 38 L50 10 L60 38 L75 22 L91 46 L91 46 L9 46 Z" fill="url(#shine)"/>
  <!-- Base plate for definition -->
  <rect x="8" y="52" width="84" height="8" rx="2" fill="#B45309" fill-opacity="0.25"/>

  <!-- Jewels -->
  <circle cx="25" cy="44" r="2.2" fill="#FFFFFF" fill-opacity="0.85"/>
  <circle cx="50" cy="38" r="2.6" fill="#FFFFFF" fill-opacity="0.9"/>
  <circle cx="75" cy="44" r="2.2" fill="#FFFFFF" fill-opacity="0.85"/>
</svg>
